PathFileType	4	(X/Y/Z)	./resultDataOpenSim/trcMotMarkerGrf/sub10/qtm-15-08.trc
DataRate	CameraRate	NumFrames	NumMarkers	Units	OrigDataRate	OrigDataStartFrame	OrigNumFrames
250.000000	250.000000	10	24	m	250.000000	254	507
Frame#	Time	L.Toe.Tip			R.Toe.Tip			L.Ankle.Lat			R.Ankle.Lat			L.Ankle.Med			R.Ankle.Med			L.Heel			R.Heel			L.Knee.Lat			R.Knee.Lat			L.Knee.Med			R.Knee.Med			L.Thigh.Upper			R.Thigh.Upper			L.ASIS			R.ASIS			V.Sacral			L.Acromium			R.Acromium			C7			L.Elbow			R.Elbow			L.Wrist.Lat			R.Wrist.Lat
		X1	Y1	Z1	X2	Y2	Z2	X3	Y3	Z3	X4	Y4	Z4	X5	Y5	Z5	X6	Y6	Z6	X7	Y7	Z7	X8	Y8	Z8	X9	Y9	Z9	X10	Y10	Z10	X11	Y11	Z11	X12	Y12	Z12	X13	Y13	Z13	X14	Y14	Z14	X15	Y15	Z15	X16	Y16	Z16	X17	Y17	Z17	X18	Y18	Z18	X19	Y19	Z19	X20	Y20	Z20	X21	Y21	Z21	X22	Y22	Z22	X23	Y23	Z23	X24	Y24	Z24

254	1.012	-0.011317514	-0.05780864	-0.036383606	0.30629553	0.10218892	0.13418055	-0.13134425	-0.012477351	-0.07810059	0.17864546	0.16432279	0.1325086	-0.12040869	0.01151367	0.0058681015	0.22309713	0.16604948	0.052292519	-0.20707333	-0.017461889	-0.041101175	0.1312122	0.14498415	0.079495312	0.087536796	0.30217416	-0.11374441	0.37367075	0.4882238	0.1352184	0.089657	0.28612805	0.0077771166	0.40081508	0.49595809	0.0027237654	0.059369882	0.68936154	-0.19854748	0.070313183	0.71719023	0.18459103	0.12268902	0.79574761	-0.13573534	0.13005238	0.80226234	0.11044857	-0.079170698	0.82634976	-0.006357083	0.13930421	1.2743339	-0.17225943	0.083621321	1.2851463	0.13619641	0.03154906	1.3062539	-0.036473236	0.079459106	0.97012233	-0.34060565	-0.06990158	0.99360946	0.25898485	0.27739781	0.8823096	-0.46512166	-0.025906364	0.90407968	0.48577183
255	1.016	-0.011184415	-0.05772831	-0.036537213	0.32716356	0.10067218	0.13245777	-0.1309994	-0.011660389	-0.078030738	0.19732698	0.15867457	0.13233293	-0.11966903	0.012284315	0.0058634688	0.24127957	0.16230064	0.051753284	-0.2066569	-0.016241157	-0.041016412	0.1504975	0.13804167	0.079166088	0.088349471	0.30252119	-0.11403024	0.38117321	0.49051662	0.13366596	0.091192418	0.28644809	0.0073573093	0.40678401	0.49900439	0.0016203312	0.062714695	0.69035866	-0.19833832	0.078590949	0.71986885	0.18530755	0.12812927	0.79603568	-0.13650982	0.13747316	0.80336951	0.10957328	-0.073873162	0.8290655	-0.0029263698	0.14565894	1.2764993	-0.17220696	0.089905672	1.2868728	0.13593879	0.037836024	1.3079612	-0.036509973	0.087254524	0.97260083	-0.34197209	-0.066092778	0.9972198	0.25939222	0.2874549	0.88822239	-0.46567844	-0.025783438	0.90866338	0.48722141
256	1.02	-0.011013748	-0.057634752	-0.036738671	0.34792861	0.099185811	0.13065458	-0.13064439	-0.01082226	-0.078015234	0.21614799	0.15313866	0.13197571	-0.11904358	0.013079996	0.0058130628	0.25953422	0.15863521	0.051114385	-0.20622745	-0.01500998	-0.041028157	0.16978267	0.13131825	0.078830447	0.089041364	0.30293786	-0.11430067	0.38843431	0.49255457	0.13228057	0.092821095	0.28677585	0.0067924398	0.41262931	0.50174417	0.00060731789	0.066202968	0.69153339	-0.19800572	0.086866508	0.7226642	0.18596885	0.13359888	0.79648516	-0.13734218	0.14500295	0.80462194	0.10875315	-0.068165996	0.83169484	-0.00028716719	0.15202552	1.2787844	-0.1721592	0.096181133	1.2887026	0.13569934	0.044130378	1.3097762	-0.036540507	0.09487395	0.97520858	-0.3433279	-0.062308811	1.0008962	0.25974405	0.29736052	0.89418358	-0.46607151	-0.025580046	0.91329028	0.48849836
257	1.024	-0.010898155	-0.057571079	-0.036860057	0.36857532	0.097702325	0.12875664	-0.1302627	-0.009943571	-0.078089153	0.23511337	0.14773902	0.13142055	-0.11849089	0.013923322	0.0056982957	0.27783201	0.15507614	0.050354209	-0.2057847	-0.013735866	-0.04112899	0.1891168	0.12481327	0.07850847	0.089594704	0.30345803	-0.1145458	0.3955148	0.49435042	0.1310599	0.09414503	0.28722976	0.0062707373	0.41836259	0.50416177	-0.00030521147	0.06976682	0.69284344	-0.1973934	0.095117505	0.72557702	0.18656524	0.1391079	0.79711025	-0.13820839	0.15258947	0.80601679	0.10796597	-0.062084221	0.83424489	0.0017964108	0.15839498	1.2811988	-0.17208662	0.10245379	1.2906397	0.13548484	0.050426755	1.3116904	-0.036568989	0.10235938	0.97798041	-0.34468289	-0.058411219	1.0044904	0.25995812	0.30711384	0.90017898	-0.46631062	-0.02529913	0.9179447	0.48960092
258	1.028	-0.010840978	-0.05753646	-0.036896227	0.38908627	0.09619051	0.12675934	-0.12985973	-0.0090033338	-0.078223248	0.25418192	0.14247769	0.13068888	-0.11796803	0.014834479	0.0055212448	0.29610282	0.15164494	0.049452538	-0.20532072	-0.012388164	-0.041305379	0.20853126	0.11854163	0.078084866	0.08999876	0.30412899	-0.11475623	0.40245967	0.49591075	0.12999228	0.095019382	0.28788962	0.0058678149	0.42397282	0.50623832	-0.0011044521	0.073374533	0.69424854	-0.19640315	0.10332666	0.72861098	0.18708488	0.14466374	0.79792041	-0.13909297	0.16020413	0.80755808	0.10720974	-0.055785216	0.83680592	0.0036016972	0.1647506	1.2837315	-0.1719734	0.10872592	1.2926835	0.135308	0.056728213	1.313702	-0.036588539	0.10978706	0.98090816	-0.34594764	-0.054334474	1.0079377	0.25999855	0.31670996	0.90619189	-0.46640854	-0.024928271	0.9226098	0.49052899
259	1.032	-0.010804	-0.057514364	-0.036892559	0.40944269	0.094620346	0.12466378	-0.12942808	-0.0079855328	-0.078396208	0.27328767	0.13735749	0.12981456	-0.11744564	0.015826911	0.0052888956	0.31428149	0.14835321	0.048414127	-0.2048136	-0.010940127	-0.041542976	0.22799017	0.11254884	0.077466272	0.090265326	0.30499536	-0.11492932	0.40927023	0.49721998	0.12906027	0.095509269	0.28876884	0.0055658725	0.42945727	0.50795394	-0.0017863767	0.077129748	0.69574406	-0.1951566	0.11148342	0.73176761	0.1875211	0.15027204	0.79892028	-0.13999355	0.16783745	0.80926088	0.10648454	-0.04920734	0.83939184	0.0051616941	0.17109202	1.2863623	-0.17182627	0.11499748	1.2948262	0.13517719	0.063047483	1.3158139	-0.036585611	0.11720499	0.98395627	-0.34704544	-0.050046004	1.0112929	0.25986334	0.32614732	0.91220669	-0.46637214	-0.02444804	0.92726903	0.49128439
260	1.036	-0.01075478	-0.057491355	-0.036884783	0.42962508	0.092965836	0.12246118	-0.12892808	-0.0068769579	-0.078633044	0.29238689	0.1324066	0.12882759	-0.11690246	0.01691268	0.0050093312	0.33238803	0.14519147	0.047301457	-0.20423468	-0.0093691612	-0.041832022	0.24741421	0.10688725	0.076674678	0.090424164	0.30609398	-0.11506817	0.415929	0.49824919	0.12824214	0.095718722	0.28985772	0.0053307088	0.43483038	0.50929514	-0.0023554463	0.081240559	0.69736291	-0.19395713	0.11958542	0.73503557	0.18787448	0.15593533	0.80011279	-0.14091284	0.17547535	0.81114748	0.10577643	-0.042107744	0.84194141	0.0063425177	0.17742819	1.2890849	-0.17166165	0.12127081	1.2970597	0.13509284	0.069397657	1.3180322	-0.036550857	0.12461191	0.98708909	-0.34798687	-0.045553828	1.0146495	0.25956035	0.3354317	0.91821191	-0.46620067	-0.023846164	0.93190703	0.4918687
261	1.04	-0.010679834	-0.057454383	-0.036888691	0.44961855	0.091207406	0.12013173	-0.12832246	-0.0056687665	-0.078948985	0.31145976	0.12767138	0.12775432	-0.11631561	0.018106834	0.0046890373	0.35050964	0.14213679	0.046208262	-0.20356735	-0.0076596499	-0.042171356	0.26674224	0.10159032	0.075758863	0.090514371	0.30745671	-0.11517767	0.42242733	0.49897268	0.12751918	0.095722769	0.2911528	0.0051406846	0.4401196	0.51026283	-0.0028183103	0.085831893	0.69912769	-0.19302677	0.12763355	0.7383902	0.18815082	0.16165051	0.80150043	-0.14184149	0.18308975	0.81323937	0.10506181	-0.034383713	0.84441916	0.0070838963	0.18375576	1.2919125	-0.17148905	0.12754832	1.2993795	0.13504949	0.075778809	1.3203607	-0.036482247	0.13198657	0.99028244	-0.34880252	-0.040958848	1.0180625	0.25912828	0.3445708	0.92419464	-0.46589058	-0.023118925	0.93651098	0.49228083
262	1.044	-0.010581681	-0.057384653	-0.036899264	0.4694192	0.089334125	0.11765305	-0.12759891	-0.0043598773	-0.079316041	0.33047841	0.12318504	0.12661141	-0.11565822	0.019425956	0.0043314042	0.36866872	0.13919031	0.045160616	-0.20281392	-0.0058075683	-0.042571571	0.28594217	0.096672238	0.074728519	0.090579183	0.30910618	-0.115267	0.42877324	0.49937805	0.12687998	0.095571679	0.29265807	0.0049836644	0.44535552	0.51086943	-0.0031810805	0.090853709	0.70102222	-0.19237077	0.13562784	0.74180874	0.18835505	0.16741982	0.80308705	-0.14274905	0.19066444	0.81555413	0.10432943	-0.026285469	0.84688487	0.0075421257	0.19005933	1.2948592	-0.17130123	0.13382549	1.301781	0.13504242	0.082180493	1.3227957	-0.036379284	0.1393162	0.9935194	-0.34948973	-0.036430429	1.0215348	0.258647	0.35356663	0.9301355	-0.46544462	-0.022261821	0.9410688	0.49251989
263	1.048	-0.010469998	-0.057265773	-0.036891506	0.48902522	0.087353937	0.11500583	-0.12677277	-0.0029491904	-0.079670883	0.34938907	0.11895056	0.12540038	-0.11489887	0.020880457	0.0039417748	0.38675592	0.13639267	0.044089832	-0.20198169	-0.0038153449	-0.043044447	0.30498082	0.092138133	0.073586236	0.090661439	0.31104883	-0.115353	0.43498325	0.49946562	0.12631941	0.095309409	0.29437904	0.0048493131	0.45056799	0.51112769	-0.0034545044	0.096178667	0.70301497	-0.19189058	0.14357002	0.7452777	0.18848613	0.17326001	0.80487922	-0.14359746	0.19823462	0.81810872	0.10359683	-0.018225197	0.84943751	0.0079723309	0.196328	1.2979182	-0.17107781	0.14009135	1.3042555	0.13507098	0.088595149	1.3253258	-0.036238999	0.14659882	0.99678802	-0.35004025	-0.032067518	1.0250344	0.25818855	0.36242447	0.93601829	-0.46487434	-0.021262671	0.94556535	0.49259117
